<svg width="20" height="20" fill="none" xmlns="http://www.w3.org/2000/svg">
  <symbol id="google-logo" viewBox="0 0 24 24">
    <path d="M19.6774 10.2419C19.6774 9.59677 19.5968 9.1129 19.5161 8.58871H10V12.0161H15.6452C15.4435 13.5081 13.9516 16.3306 10 16.3306C6.57258 16.3306 3.79032 13.5081 3.79032 10C3.79032 4.39516 10.4032 1.81452 13.9516 5.24194L16.6935 2.62097C14.9597 1.00806 12.6613 0 10 0C4.43548 0 0 4.47581 0 10C0 15.5645 4.43548 20 10 20C15.7661 20 19.6774 15.9677 19.6774 10.2419Z" fill="#1D1D1F"/>
  </symbol>
  <symbol id="instagram-logo" viewBox="0 0 20 20" fill="none" xmlns="http://www.w3.org/2000/svg">
    <path fill-rule="evenodd" clip-rule="evenodd" d="M9.99604 5.32996C7.41604 5.32996 5.31604 7.41996 5.31604 9.99996C5.31604 12.58 7.40604 14.67 9.99604 14.67C12.576 14.67 14.666 12.58 14.666 9.99996C14.676 7.41996 12.576 5.32996 9.99604 5.32996ZM9.99604 13.04C8.31604 13.04 6.96604 11.68 6.96604 10.01C6.96604 8.32996 8.32604 6.97996 9.99604 6.97996C11.676 6.97996 13.026 8.33996 13.026 10.01C13.036 11.68 11.676 13.04 9.99604 13.04Z" fill="#1D1D1F"/>
    <path d="M13.7662 5.14017C13.7662 4.54017 14.2562 4.05017 14.8562 4.05017C15.4562 4.05017 15.9462 4.54017 15.9462 5.14017C15.9462 5.74017 15.4562 6.23017 14.8562 6.23017C14.2562 6.23017 13.7662 5.74017 13.7662 5.14017Z" fill="#1D1D1F"/>
    <path fill-rule="evenodd" clip-rule="evenodd" d="M19.0461 6.25003C19.0061 5.28003 18.8461 4.62003 18.6261 4.04003C18.3961 3.44003 18.0861 2.93003 17.5761 2.43003C17.0661 1.92003 16.5561 1.61003 15.9561 1.38003C15.3761 1.15003 14.7161 1.00003 13.7461 0.960034C12.7761 0.920034 12.4661 0.910034 9.99613 0.910034C7.52613 0.910034 7.21613 0.920034 6.24613 0.960034C5.27613 1.00003 4.61613 1.16003 4.03613 1.38003C3.43613 1.61003 2.92613 1.92003 2.42613 2.43003C1.91613 2.94003 1.60613 3.44003 1.37613 4.04003C1.15613 4.62003 0.996127 5.28003 0.956127 6.25003C0.916127 7.22003 0.906128 7.53003 0.906128 10C0.906128 12.47 0.916127 12.78 0.956127 13.75C0.996127 14.72 1.15613 15.38 1.37613 15.96C1.60613 16.56 1.91613 17.07 2.42613 17.57C2.93613 18.08 3.43613 18.39 4.03613 18.62C4.61613 18.84 5.27613 19 6.24613 19.04C7.21613 19.09 7.52613 19.09 9.99613 19.09C12.4661 19.09 12.7761 19.08 13.7461 19.04C14.7161 19 15.3761 18.84 15.9561 18.62C16.5561 18.39 17.0661 18.08 17.5661 17.57C18.0761 17.06 18.3861 16.56 18.6161 15.96C18.8361 15.38 18.9961 14.72 19.0361 13.75C19.0761 12.78 19.0861 12.47 19.0861 10C19.105 7.66469 19.0882 7.26025 19.0525 6.40324L19.0461 6.25003ZM17.4061 13.68C17.3661 14.57 17.2161 15.05 17.0961 15.37C16.9261 15.79 16.7361 16.1 16.4161 16.42C16.0961 16.74 15.7961 16.94 15.3661 17.1C15.0461 17.22 14.5661 17.37 13.6761 17.41C12.7161 17.45 12.4261 17.46 9.99613 17.46C7.56613 17.46 7.27613 17.45 6.31613 17.41C5.42613 17.37 4.94613 17.22 4.62613 17.1C4.20613 16.93 3.89613 16.74 3.57613 16.42C3.25613 16.1 3.05613 15.8 2.89613 15.37C2.77613 15.05 2.62613 14.57 2.58613 13.68C2.54613 12.72 2.53613 12.43 2.53613 10C2.53613 7.57003 2.54613 7.28003 2.58613 6.32003C2.62613 5.43003 2.77613 4.95003 2.89613 4.63003C3.06613 4.21003 3.25613 3.90003 3.57613 3.58003C3.89613 3.26003 4.19613 3.06003 4.62613 2.90003C4.94613 2.78003 5.42613 2.63003 6.31613 2.59003C7.27613 2.55003 7.56613 2.54003 9.99613 2.54003C12.4261 2.54003 12.7161 2.55003 13.6761 2.59003C14.5661 2.63003 15.0461 2.78003 15.3661 2.90003C15.7861 3.06003 16.0961 3.26003 16.4161 3.58003C16.7361 3.90003 16.9361 4.20003 17.0961 4.63003C17.2161 4.95003 17.3661 5.43003 17.4061 6.32003C17.4461 7.28003 17.4561 7.57003 17.4561 10C17.4561 12.4395 17.4561 12.7201 17.4061 13.68Z" fill="#1D1D1F"/>
  </symbol>
  <symbol id="facebook-logo" viewBox="0 0 20 20" fill="none" xmlns="http://www.w3.org/2000/svg">
    <path d="M19.615 10.06C19.615 4.75001 15.315 0.450012 10.015 0.450012H9.99501C4.68501 0.450012 0.38501 4.76001 0.38501 10.06C0.38501 14.86 3.90501 18.82 8.50501 19.55V12.84H6.04501V10.06H8.50501V7.94001C8.50501 5.53001 9.93501 4.20001 12.125 4.20001C13.175 4.20001 14.265 4.40001 14.265 4.40001V6.75001H13.065C11.875 6.75001 11.485 7.50001 11.485 8.26001V10.06H14.155L13.725 12.84H11.485V19.55C16.085 18.83 19.615 14.86 19.615 10.06Z" fill="#1D1D1F"/>
  </symbol>
  <symbol id="linkedin-logo" viewBox="0 0 19 18" fill="none" xmlns="http://www.w3.org/2000/svg">
    <path d="M4.05 18H0.3375V6.01875H4.05V18ZM2.19375 4.33125C0.95625 4.33125 0 3.375 0 2.19375C0 1.0125 0.95625 0 2.19375 0C3.375 0 4.33125 1.0125 4.33125 2.19375C4.33125 3.375 3.375 4.33125 2.19375 4.33125ZM18.0562 18H14.2875V12.15C14.2875 10.8 14.2875 9 12.375 9C10.4062 9 10.125 10.5188 10.125 12.0938V18H6.4125V6.01875H9.95625V7.65H10.0125C10.5188 6.69375 11.7562 5.68125 13.5562 5.68125C17.325 5.68125 18.0562 8.2125 18.0562 11.4187V18Z" fill="#1D1D1F"/>
  </symbol>

</svg>
